<svg fill="#373a4a" stroke-width="0" viewBox="0 0 416 384" xmlns="http://www.w3.org/2000/svg"><path d="m301.6 0c-36.4 0-70.7 16.7-93.6 43.9-22.9-27.2-57.2-43.9-93.6-43.9-64.5 0-114.4 50.2-114.4 115.1 0 79.5 70.7 143.3 177.8 241.7l30.2 27.2 30.2-27.2c107.1-98.4 177.8-162.2 177.8-241.7 0-64.9-49.9-115.1-114.4-115.1zm-80.8 329.3-4.2 3.9-8.6 7.8-8.6-7.8-4.2-3.9c-50.4-46.3-94-86.3-122.7-122-28-34.7-40.4-63.1-40.4-92.2 0-22.9 8.4-43.9 23.7-59.3 15.2-15.4 36-23.8 58.6-23.8 26.1 0 52 12.2 69.1 32.5l24.5 29.1 24.5-29.1c17.1-20.4 43-32.5 69.1-32.5 22.6 0 43.4 8.4 58.7 23.8s23.7 36.5 23.7 59.3c0 29-12.5 57.5-40.4 92.2-28.8 35.7-72.3 75.7-122.8 122z"></path></svg>
