<svg xmlns="http://www.w3.org/2000/svg" viewBox="0 0 787 787" width="787" height="787">
	<style>
		.shp1 { fill: #373a4a }
	</style>
	<path stroke="#373a4a" stroke-width="69.139" fill="none" d="M393.33 752.09C194.94 752.09 34.57 591.72 34.57 393.33C34.57 194.94 194.94 34.57 393.33 34.57C591.72 34.57 752.09 194.94 752.09 393.33C752.09 591.72 591.72 752.09 393.33 752.09Z" />
	<path fill-rule="evenodd" class="shp1" d="M266.9 140C275.31 140 280.8 142.49 287.87 149.56C294.85 156.55 297.44 162.12 297.44 170.29C297.44 178.32 294.82 184.12 288.13 191.01C281.05 198.27 275.85 200.6 266.61 200.7C257.4 200.79 252.2 198.63 245.51 191.93C238.68 185.08 236.71 180.23 236.99 170.83C237.25 162.06 239.89 156.04 246.43 149.31C253.12 142.45 258.51 140 266.9 140ZM518.74 140C527.16 140 532.64 142.49 539.72 149.56C546.7 156.55 549.28 162.12 549.28 170.29C549.28 178.32 546.67 184.12 539.97 191.01C533.02 198.12 527.73 200.57 519.25 200.57C510.83 200.57 505.35 198.08 498.27 191.01C491.04 183.77 488.77 178.67 488.97 170.03C489.12 162.03 491.9 155.88 498.27 149.31C504.97 142.45 510.36 140 518.74 140ZM174.45 232.45C182.86 232.45 188.35 234.94 195.42 242.01C202.4 248.99 204.99 254.57 204.99 262.73C204.99 269.97 202.18 277.27 197.02 283.46C190.48 291.3 186.62 293.02 175.5 293.08C164.85 293.15 160.07 291.27 153.25 284.32C146.71 277.69 144.58 272.46 144.7 263.28C144.86 254.35 147.32 248.61 153.98 241.76C160.68 234.9 166.06 232.45 174.45 232.45ZM611.7 232.45C623.46 232.45 627.1 234.04 633.76 242.01C638.92 248.2 641.73 255.5 641.73 262.73C641.73 270.77 639.12 276.57 632.42 283.46C625.47 290.56 620.18 293.02 611.7 293.02C603.28 293.02 597.8 290.53 590.72 283.46C584.09 276.82 581.03 270.54 580.78 262.99C580.52 255.31 582.98 249.15 589.03 242.27C596.17 234.07 599.97 232.45 611.7 232.45ZM394.67 328.09C404.49 328.12 414.27 330.35 420.17 333.92C425.43 337.14 473.47 372.43 526.96 412.34C580.46 452.25 628.18 488.72 633.03 493.38C640.01 500.04 641.86 504.66 641.79 515.38C641.73 526.5 640.01 530.36 632.17 536.89C626.91 541.29 618.65 544.9 613.84 544.93C609.02 544.99 550.56 521.88 483.93 493.6C417.3 465.36 359.22 439.73 354.82 436.67C350.45 433.61 343.41 424.07 339.2 415.47C333.3 403.45 331.83 396.08 332.82 383.68C333.68 372.68 336.93 363.5 343.09 354.67C348.03 347.56 358.07 338.7 365.4 334.94C373.79 330.6 384.63 328.09 394.67 328.09ZM146.01 359.1C149.52 359.93 155.61 362.64 159.56 365.07C163.51 367.52 168.23 373.48 170.08 378.3C171.9 383.11 172.63 391.02 171.67 395.83C170.72 400.64 165.62 408.2 160.36 412.57C155.1 416.96 147.22 420.54 142.82 420.54C138.46 420.54 131.63 419.07 127.68 417.28C123.73 415.5 117.83 409.38 114.51 403.73C110.53 396.82 109.19 390.28 110.47 383.87C111.52 378.61 115.63 371.22 119.62 367.46C123.63 363.69 129.75 359.93 133.26 359.1C136.77 358.28 142.5 358.28 146.01 359.1ZM643.58 356.78C647.82 356.78 655.25 358.75 660.06 361.18C664.87 363.6 670.61 369.34 672.81 373.93C675.01 378.52 676.8 385.88 676.8 390.25C676.8 394.65 673.23 402.52 668.83 407.78C664.36 413.14 656.65 418.05 651.29 418.94C645.97 419.83 637.49 418.4 632.17 415.75C626.75 413.04 620.53 406.13 617.82 399.81C614.76 392.7 613.9 385.56 615.43 380.18C616.74 375.49 621.9 368.32 626.84 364.24C631.81 360.12 639.34 356.78 643.58 356.78ZM177.09 484.48C182.77 484.36 189.24 487.67 195.42 493.86C202.85 501.28 204.99 506.26 204.99 516.17C204.99 525.42 202.85 531.12 197.18 536.89C192.87 541.29 186.05 545.02 182.03 545.25C177.99 545.44 171.83 545.34 168.33 545.05C164.82 544.77 158 540.3 153.18 535.14C147.35 528.89 144.42 522.26 144.38 515.38C144.38 509.67 146.68 501.7 149.49 497.62C152.32 493.54 157.71 488.98 161.47 487.45C165.23 485.95 172.28 484.61 177.09 484.48ZM266.9 576.74C274.39 576.74 281.59 579.48 287.87 584.71C295.68 591.22 297.47 595.14 297.56 606.23C297.66 616.72 295.75 621.76 289.15 628.55C282.74 635.11 277.54 637.31 268.3 637.31C258.86 637.31 253.76 635.08 246.43 627.75C239.19 620.51 236.93 615.41 237.12 606.77C237.28 598.77 240.05 592.62 246.43 586.05C253.12 579.2 258.51 576.74 266.9 576.74ZM519.54 576.61C528.75 576.52 533.95 578.69 540.64 585.38C545.52 590.29 549.63 597.14 549.79 600.65C549.92 604.16 549.82 609.2 549.54 611.81C549.25 614.42 547.3 619.81 545.17 623.76C543.03 627.68 538.09 632.34 534.14 634.12C530.18 635.88 522.66 637.31 517.4 637.31C511.03 637.31 504.65 634.12 498.27 627.75C491.04 620.51 488.77 615.41 488.97 606.77C489.12 598.77 491.9 592.62 498.27 586.05C505.1 579.04 510.36 576.71 519.54 576.61ZM399.45 610.37C403.85 611.3 411.37 616.3 416.19 621.5C421 626.7 424.95 634.54 424.95 638.91C424.95 643.31 422.98 650.83 420.55 655.64C418.13 660.46 412.39 666.19 407.8 668.39C403.21 670.59 395.88 672.38 391.48 672.38C387.11 672.38 379.56 669 374.74 664.89C369.93 660.78 365.02 653.25 363.87 648.15C362.63 642.67 363.58 634.7 366.26 628.55C368.94 622.39 374.97 616.27 381.12 613.47C386.82 610.85 395.08 609.48 399.45 610.37Z" />
	<path fill-rule="evenodd" class="shp1" d="M503 68.13C498.16 68.09 394.15 168.5 394.15 168.5C312.6 86.99 290.62 68.13 285.5 68.22C280.99 68.3 507.39 68.18 503 68.13Z" />
</svg>
